<svg xmlns="http://www.w3.org/2000/svg" viewBox="0 0 16 16"><path fill="#464646" d="M3 7h1v1H3z"/><path fill="#1a1a1a" d="M5 7h1v1H5zm1 0h1v1H6zm3 0h1v1H9zm1 0h1v1h-1z"/><path fill="#464646" d="M12 7h1v1h-1z"/><path fill="#1a1a1a" d="M3 8h1v1H3zm1 0h1v1H4z"/><path fill="#656565" fill-opacity=".93" d="M5 8h1v1H5z"/><path fill="#939393" fill-opacity=".93" d="M6 8h1v1H6z"/><path fill="#1a1a1a" d="M7 8h1v1H7zm1 0h1v1H8z"/><path fill="#656565" fill-opacity=".93" d="M9 8h1v1H9z"/><path fill="#939393" fill-opacity=".93" d="M10 8h1v1h-1z"/><path fill="#1a1a1a" d="M11 8h1v1h-1zm1 0h1v1h-1zM4 9h1v1H4z"/><path fill="#656565" fill-opacity=".93" d="M5 9h1v1H5zm1 0h1v1H6z"/><path fill="#1a1a1a" d="M7 9h1v1H7zm1 0h1v1H8z"/><path fill="#656565" fill-opacity=".93" d="M9 9h1v1H9zm1 0h1v1h-1z"/><path fill="#1a1a1a" d="M11 9h1v1h-1zm-6 1h1v1H5zm1 0h1v1H6z"/><path fill="#333333" fill-opacity=".33" d="M7 10h1v1H7zm1 0h1v1H8z"/><path fill="#1a1a1a" d="M9 10h1v1H9zm1 0h1v1h-1z"/></svg>
