<svg xmlns="http://www.w3.org/2000/svg" viewBox="0 -2 16 16"><path fill="#515151" d="M7 1h1v1H7zm1 0h1v1H8z"/><path fill="#393939" d="M6 2h1v1H6z"/><path fill="#9e9e9e" d="M7 2h1v1H7z"/><path fill="#e0e0e0" d="M8 2h1v1H8z"/><path fill="#515151" d="M9 2h1v1H9z"/><path fill="#393939" d="M5 3h1v1H5z"/><path fill="#777777" d="M6 3h1v1H6z"/><path fill="#9e9e9e" d="M7 3h1v1H7zm1 0h1v1H8zm1 0h1v1H9z"/><path fill="#515151" d="M10 3h1v1h-1z"/><path fill="#393939" d="M5 4h1v1H5zm1 0h1v1H6zm1 0h1v1H7zm1 0h1v1H8zm1 0h1v1H9zm1 0h1v1h-1zM4 5h1v1H4z"/><path fill="#777777" d="M5 5h1v1H5zm1 0h1v1H6zm1 0h1v1H7z"/><path fill="#9e9e9e" d="M8 5h1v1H8zm1 0h1v1H9z"/><path fill="#777777" d="M10 5h1v1h-1z"/><path fill="#393939" d="M11 5h1v1h-1zM3 6h1v1H3z"/><path fill="#9e9e9e" d="M4 6h1v1H4z"/><path fill="#777777" d="M5 6h1v1H5z"/><path fill="#9e9e9e" d="M6 6h1v1H6z"/><path fill="#cbcbcb" d="M7 6h1v1H7zm1 0h1v1H8z"/><path fill="#e0e0e0" d="M9 6h1v1H9z"/><path fill="#cbcbcb" d="M10 6h1v1h-1z"/><path fill="#9e9e9e" d="M11 6h1v1h-1z"/><path fill="#393939" d="M12 6h1v1h-1zM3 7h1v1H3z"/><path fill="#cbcbcb" d="M4 7h1v1H4z"/><path fill="#515151" d="M5 7h1v1H5z"/><path fill="#777777" d="M6 7h1v1H6z"/><path fill="#9e9e9e" d="M7 7h1v1H7z"/><path fill="#e0e0e0" d="M8 7h1v1H8zm1 0h1v1H9z"/><path fill="#9e9e9e" d="M10 7h1v1h-1z"/><path fill="#777777" d="M11 7h1v1h-1z"/><path fill="#393939" d="M12 7h1v1h-1zM3 8h1v1H3z"/><path fill="#9e9e9e" d="M4 8h1v1H4z"/><path fill="#515151" d="M5 8h1v1H5zm1 0h1v1H6zm1 0h1v1H7z"/><path fill="#9e9e9e" d="M8 8h1v1H8z"/><path fill="#e0e0e0" d="M9 8h1v1H9z"/><path fill="#cbcbcb" d="M10 8h1v1h-1z"/><path fill="#9e9e9e" d="M11 8h1v1h-1z"/><path fill="#393939" d="M12 8h1v1h-1zM3 9h1v1H3z"/><path fill="#777777" d="M4 9h1v1H4z"/><path fill="#515151" d="M5 9h1v1H5z"/><path fill="#252525" fill-opacity=".36" d="M6 9h1v1H6zm1 0h1v1H7z"/><path fill="#515151" d="M8 9h1v1H8zm1 0h1v1H9zm1 0h1v1h-1zm1 0h1v1h-1z"/><path fill="#393939" d="M12 9h1v1h-1zm-9 1h1v1H3z"/><path fill="#515151" d="M4 10h1v1H4z"/><path fill="#252525" fill-opacity=".36" d="M5 10h1v1H5zm5 0h1v1h-1zm1 0h1v1h-1z"/><path fill="#393939" d="M12 10h1v1h-1z"/></svg>
