<svg xmlns="http://www.w3.org/2000/svg" viewBox="0 0 54 54"><path fill="#1a1a1a" d="M21 15h12v3H21zM18 18h3v3h-3z"/><path fill="#636363" d="M21 18h3v3h-3z"/><path fill="#a3a3a3" d="M24 18h6v3h-6z"/><path fill="#828282" d="M30 18h3v3h-3z"/><path fill="#1a1a1a" d="M33 18h3v3h-3zM15 21h3v3h-3z"/><path fill="#585858" d="M18 21h3v3h-3z"/><path fill="#828282" d="M21 21h3v3h-3z"/><path fill="#a3a3a3" d="M24 21h3v6h-3z"/><path fill="#b3b3b3" d="M27 21h6v3h-6z"/><path fill="#828282" d="M33 21h3v3h-3z"/><path fill="#1a1a1a" d="M36 21h3v3h-3zM12 24h3v9h-3z"/><path fill="#636363" d="M15 24h3v3h-3z"/><path fill="#828282" d="M18 24h6v3h-6z"/><path fill="#a3a3a3" d="M27 24h3v3h-3z"/><path fill="#b3b3b3" d="M30 24h3v3h-3z"/><path fill="#a3a3a3" d="M33 24h6v3h-6z"/><path fill="#1a1a1a" d="M39 24h3v3h-3z"/><path fill="#585858" d="M15 27h3v3h-3z"/><path fill="#636363" d="M18 27h18v3H18z"/><path fill="#585858" d="M36 27h3v3h-3z"/><path fill="#1a1a1a" d="M39 27h3v3h-3zM9 30h6v3H9z"/><path fill="#a3a3a3" d="M15 30h6v3h-6z"/><path fill="#b3b3b3" d="M21 30h12v3H21z"/><path fill="#a3a3a3" d="M33 30h6v3h-6z"/><path fill="#1a1a1a" d="M39 30h6v3h-6zM6 33h3v3H6z"/><path fill="#636363" d="M9 33h3v3H9z"/><path fill="#a3a3a3" d="M12 33h3v3h-3z"/><path fill="#828282" d="M15 33h3v3h-3z"/><path fill="#1a1a1a" d="M18 33h18v3H18z"/><path fill="#828282" d="M36 33h3v3h-3z"/><path fill="#a3a3a3" d="M39 33h3v3h-3z"/><path fill="#636363" d="M42 33h3v3h-3z"/><path fill="#1a1a1a" d="M45 33h3v3h-3zM3 36h3v3H3z"/><path fill="#828282" d="M6 36h3v3H6z"/><path fill="#a3a3a3" d="M9 36h3v3H9z"/><path fill="#1a1a1a" d="M12 36h6v3h-6z"/><path fill="#1f1f1f" fill-opacity=".5" d="M18 36h18v3H18z"/><path fill="#1a1a1a" d="M36 36h6v3h-6z"/><path fill="#a3a3a3" d="M42 36h3v3h-3z"/><path fill="#828282" d="M45 36h3v3h-3z"/><path fill="#1a1a1a" d="M48 36h3v3h-3zM3 39h3v3H3z"/><path fill="#585858" d="M6 39h6v3H6z"/><path fill="#1f1f1f" fill-opacity=".5" d="M12 39h6v3h-6zM36 39h6v3h-6z"/><path fill="#585858" d="M42 39h6v3h-6z"/><path fill="#1a1a1a" d="M48 39h3v3h-3zM6 42h6v3H6zM42 42h6v3h-6z"/></svg>
