<svg xmlns="http://www.w3.org/2000/svg" viewBox="0 0 54 54"><rect x="21" y="15" width="12" height="3" fill="rgb(81,44,12)"></rect>
<rect x="18" y="18" width="3" height="3" fill="rgb(81,44,12)"></rect>
<rect x="21" y="18" width="3" height="3" fill="rgb(173,91,24)"></rect>
<rect x="24" y="18" width="6" height="3" fill="rgb(255,182,72)"></rect>
<rect x="30" y="18" width="3" height="3" fill="rgb(206,132,53)"></rect>
<rect x="33" y="18" width="3" height="3" fill="rgb(81,44,12)"></rect>
<rect x="15" y="21" width="3" height="3" fill="rgb(81,44,12)"></rect>
<rect x="18" y="21" width="3" height="3" fill="rgb(137,75,39)"></rect>
<rect x="21" y="21" width="3" height="3" fill="rgb(206,132,53)"></rect>
<rect x="24" y="21" width="3" height="6" fill="rgb(255,182,72)"></rect>
<rect x="27" y="21" width="6" height="3" fill="rgb(255,225,104)"></rect>
<rect x="33" y="21" width="3" height="3" fill="rgb(206,132,53)"></rect>
<rect x="36" y="21" width="3" height="3" fill="rgb(81,44,12)"></rect>
<rect x="12" y="24" width="3" height="9" fill="rgb(81,44,12)"></rect>
<rect x="15" y="24" width="3" height="3" fill="rgb(173,91,24)"></rect>
<rect x="18" y="24" width="6" height="3" fill="rgb(206,132,53)"></rect>
<rect x="27" y="24" width="3" height="3" fill="rgb(255,182,72)"></rect>
<rect x="30" y="24" width="3" height="3" fill="rgb(255,225,104)"></rect>
<rect x="33" y="24" width="6" height="3" fill="rgb(255,182,72)"></rect>
<rect x="39" y="24" width="3" height="3" fill="rgb(81,44,12)"></rect>
<rect x="15" y="27" width="3" height="3" fill="rgb(137,75,39)"></rect>
<rect x="18" y="27" width="18" height="3" fill="rgb(173,91,24)"></rect>
<rect x="36" y="27" width="3" height="3" fill="rgb(137,75,39)"></rect>
<rect x="39" y="27" width="3" height="3" fill="rgb(81,44,12)"></rect>
<rect x="9" y="30" width="6" height="3" fill="rgb(81,44,12)"></rect>
<rect x="15" y="30" width="6" height="3" fill="rgb(255,182,72)"></rect>
<rect x="21" y="30" width="12" height="3" fill="rgb(255,225,104)"></rect>
<rect x="33" y="30" width="6" height="3" fill="rgb(255,182,72)"></rect>
<rect x="39" y="30" width="6" height="3" fill="rgb(81,44,12)"></rect>
<rect x="6" y="33" width="3" height="3" fill="rgb(81,44,12)"></rect>
<rect x="9" y="33" width="3" height="3" fill="rgb(173,91,24)"></rect>
<rect x="12" y="33" width="3" height="3" fill="rgb(255,182,72)"></rect>
<rect x="15" y="33" width="3" height="3" fill="rgb(206,132,53)"></rect>
<rect x="18" y="33" width="18" height="3" fill="rgb(81,44,12)"></rect>
<rect x="36" y="33" width="3" height="3" fill="rgb(206,132,53)"></rect>
<rect x="39" y="33" width="3" height="3" fill="rgb(255,182,72)"></rect>
<rect x="42" y="33" width="3" height="3" fill="rgb(173,91,24)"></rect>
<rect x="45" y="33" width="3" height="3" fill="rgb(81,44,12)"></rect>
<rect x="3" y="36" width="3" height="3" fill="rgb(81,44,12)"></rect>
<rect x="6" y="36" width="3" height="3" fill="rgb(206,132,53)"></rect>
<rect x="9" y="36" width="3" height="3" fill="rgb(255,182,72)"></rect>
<rect x="12" y="36" width="6" height="3" fill="rgb(81,44,12)"></rect>
<rect x="18" y="36" width="18" height="3" fill="rgb(62,12,0)" fill-opacity="0.5"></rect>
<rect x="36" y="36" width="6" height="3" fill="rgb(81,44,12)"></rect>
<rect x="42" y="36" width="3" height="3" fill="rgb(255,182,72)"></rect>
<rect x="45" y="36" width="3" height="3" fill="rgb(206,132,53)"></rect>
<rect x="48" y="36" width="3" height="3" fill="rgb(81,44,12)"></rect>
<rect x="3" y="39" width="3" height="3" fill="rgb(81,44,12)"></rect>
<rect x="6" y="39" width="6" height="3" fill="rgb(137,75,39)"></rect>
<rect x="12" y="39" width="6" height="3" fill="rgb(62,12,0)" fill-opacity="0.5"></rect>
<rect x="36" y="39" width="6" height="3" fill="rgb(62,12,0)" fill-opacity="0.5"></rect>
<rect x="42" y="39" width="6" height="3" fill="rgb(137,75,39)"></rect>
<rect x="48" y="39" width="3" height="3" fill="rgb(81,44,12)"></rect>
<rect x="6" y="42" width="6" height="3" fill="rgb(81,44,12)"></rect>
<rect x="42" y="42" width="6" height="3" fill="rgb(81,44,12)"></rect>
</svg>
