<svg xmlns="http://www.w3.org/2000/svg" viewBox="0 0 20 20" preserveAspectRatio="xMidYMid slice" shape-rendering="crispEdges"><path fill="#433252" d="M8 1h4v1H8zM7 2h1v1H7z"/><path fill="#97759f" d="M8 2h2v1H8z"/><path fill="#d1a3d7" d="M10 2h2v1h-2z"/><path fill="#433252" d="M12 2h1v1h-1zM6 3h1v1H6z"/><path fill="#6f5473" d="M7 3h1v1H7z"/><path fill="#97759f" d="M8 3h3v1H8z"/><path fill="#d1a3d7" d="M11 3h2v1h-2z"/><path fill="#433252" d="M13 3h1v1h-1z"/><path fill="#5a1376" d="M2 4h3v1H2z"/><path fill="#433252" d="M5 4h2v1H5z"/><path fill="#6f5473" d="M7 4h1v1H7z"/><path fill="#433252" d="M8 4h4v1H8z"/><path fill="#97759f" d="M12 4h1v1h-1z"/><path fill="#6f5473" d="M13 4h1v1h-1z"/><path fill="#433252" d="M14 4h1v1h-1z"/><path fill="#5a1376" d="M15 4h3v1h-3zM2 5h1v1H2z"/><path fill="#f8ddee" d="M3 5h2v1H3zM5 5h1v1H5z"/><path fill="#433252" d="M6 5h2v1H6z"/><path fill="#6f5473" d="M8 5h1v1H8z"/><path fill="#97759f" d="M9 5h2v1H9z"/><path fill="#6f5473" d="M11 5h1v1h-1z"/><path fill="#433252" d="M12 5h2v1h-2z"/><path fill="#f8ddee" d="M14 5h3v1h-3z"/><path fill="#5a1376" d="M17 5h1v1h-1zM2 6h1v1H2z"/><path fill="#fbacdc" d="M3 6h2v1H3z"/><path fill="#f8ddee" d="M5 6h1v1H5z"/><path fill="#5a1376" d="M6 6h1v1H6z"/><path fill="#6f5473" d="M7 6h2v1H7z"/><path fill="#97759f" d="M9 6h4v1H9z"/><path fill="#5a1376" d="M13 6h1v1h-1z"/><path fill="#f8ddee" d="M14 6h1v1h-1z"/><path fill="#fbacdc" d="M15 6h2v1h-2z"/><path fill="#5a1376" d="M17 6h1v1h-1zM2 7h1v1H2z"/><path fill="#fbacdc" d="M3 7h1v1H3z"/><path fill="#5a1376" d="M4 7h3v1H4z"/><path fill="#97759f" d="M7 7h2v1H7z"/><path fill="#d1a3d7" d="M9 7h3v1H9z"/><path fill="#b48abc" d="M12 7h1v1h-1z"/><path fill="#5a1376" d="M13 7h3v1h-3z"/><path fill="#fbacdc" d="M16 7h1v1h-1z"/><path fill="#5a1376" d="M17 7h1v1h-1zM3 8h1v1H3z"/><path fill="#fbacdc" d="M4 8h1v1H4z"/><path fill="#5a1376" d="M5 8h1v1H5z"/><path fill="#6f5473" d="M6 8h1v1H6z"/><path fill="#97759f" d="M7 8h2v1H7z"/><path fill="#d1a3d7" d="M9 8h1v1H9z"/><path fill="#dec5e2" d="M10 8h1v1h-1z"/><path fill="#d1a3d7" d="M11 8h1v1h-1zM12 8h1v1h-1z"/><path fill="#b48abc" d="M13 8h1v1h-1z"/><path fill="#5a1376" d="M14 8h1v1h-1z"/><path fill="#fbacdc" d="M15 8h1v1h-1z"/><path fill="#5a1376" d="M16 8h1v1h-1zM3 9h2v1H3z"/><path fill="#d1a3d7" d="M5 9h1v1H5z"/><path fill="#533758" d="M6 9h1v1H6z"/><path fill="#6f5473" d="M7 9h1v1H7z"/><path fill="#97759f" d="M8 9h2v1H8z"/><path fill="#dec5e2" d="M10 9h2v1h-2z"/><path fill="#d1a3d7" d="M12 9h2v1h-2z"/><path fill="#b48abc" d="M14 9h1v1h-1z"/><path fill="#5a1376" d="M15 9h2v1h-2z"/><path fill="#5a1376" d="M16 9h1v1h-1z"/><path fill="#433252" d="M3 10h1v1H3z"/><path fill="#d1a3d7" d="M4 10h1v1H4z"/><path fill="#97759f" d="M5 10h1v1H5z"/><path fill="#533758" d="M6 10h3v1H6z"/><path fill="#6f5473" d="M9 10h1v1H9z"/><path fill="#97759f" d="M10 10h1v1h-1z"/><path fill="#d1a3d7" d="M11 10h3v1h-3z"/><path fill="#97759f" d="M14 10h1v1h-1z"/><path fill="#6f5473" d="M15 10h1v1h-1z"/><path fill="#433252" d="M16 10h1v1h-1zM3 11h1v1H3z"/><path fill="#97759f" d="M4 11h1v1H4z"/><path fill="#6f5473" d="M5 11h1v1H5z"/><path fill="#533758" d="M6 11h1v1H6z"/><path fill="#f99d8b" d="M7 11h2v1H7z"/><path fill="#533758" d="M9 11h1v1H9z"/><path fill="#6f5473" d="M10 11h1v1h-1z"/><path fill="#97759f" d="M11 11h2v1h-2z"/><path fill="#b48abc" d="M13 11h2v1h-2z"/><path fill="#6f5473" d="M15 11h1v1h-1z"/><path fill="#433252" d="M16 11h1v1h-1zM3 12h1v1H3z"/><path fill="#6f5473" d="M4 12h2v1H4z"/><path fill="#533758" d="M6 12h1v1H6z"/><path fill="#fbbcac" d="M7 12h2v1H7z"/><path fill="#fbbcac" d="M8 12h1v1H8z"/><path fill="#f99d8b" d="M9 12h1v1H9z"/><path fill="#533758" d="M10 12h3v1h-3z"/><path fill="#6f5473" d="M13 12h1v1h-1z"/><path fill="#b48abc" d="M14 12h1v1h-1z"/><path fill="#533758" d="M15 12h1v1h-1z"/><path fill="#433252" d="M16 12h1v1h-1zM3 13h1v1H3z"/><path fill="#533758" d="M4 13h2v1H4z"/><path fill="#fbbcac" d="M6 13h1v1H6z"/><path d="M7 13h2v1H7z"/><path fill="#fbbcac" d="M9 13h1v1H9z"/><path fill="#f99d8b" d="M10 13h1v1h-1z"/><path d="M11 13h2v1h-2z"/><path fill="#533758" d="M13 13h1v1h-1z"/><path fill="#6f5473" d="M14 13h1v1h-1z"/><path fill="#533758" d="M15 13h1v1h-1z"/><path fill="#433252" d="M16 13h1v1h-1zM4 14h1v1H4z"/><path fill="#fbbcac" d="M5 14h1v1H5z"/><path d="M6 14h1v1H6z"/><path fill="#e6e6e6" d="M7 14h1v1H7z"/><path fill="#371197" d="M8 14h1v1H8z"/><path fill="#fbbcac" d="M9 14h2v1H9z"/><path fill="#371197" d="M11 14h1v1h-1z"/><path fill="#e6e6e6" d="M12 14h1v1h-1z"/><path d="M13 14h1v1h-1z"/><path fill="#533758" d="M14 14h1v1h-1z"/><path fill="#433252" d="M15 14h1v1h-1zM5 15h1v1H5z"/><path fill="#fbbcac" d="M6 15h1v1H6z"/><path fill="#fff" d="M7 15h1v1H7z"/><path fill="#4f27be" d="M8 15h1v1H8z"/><path fill="#fbbcac" d="M9 15h2v1H9z"/><path fill="#4f27be" d="M11 15h1v1h-1z"/><path fill="#fff" d="M12 15h1v1h-1z"/><path fill="#fbbcac" d="M13 15h1v1h-1z"/><path fill="#433252" d="M14 15h1v1h-1z"/><path fill="#5b2934" d="M1 16h2v1H1z"/><path fill="#433252" d="M6 16h1v1H6z"/><path fill="#fbacdc" d="M7 16h2v1H7z"/><path fill="#fbbcac" d="M9 16h2v1H9z"/><path fill="#fbacdc" d="M11 16h2v1h-2z"/><path fill="#433252" d="M13 16h1v1h-1z"/><path fill="#5b2934" d="M17 16h2v1h-2zM0 17h1v1H0z"/><path fill="#fbbcac" d="M1 17h2v1H1z"/><path fill="#5b2934" d="M3 17h1v1H3z"/><path fill="#433252" d="M7 17h2v1H7z"/><path fill="#f99d8b" d="M9 17h1v1H9zM10 17h1v1h-1z"/><path fill="#433252" d="M11 17h2v1h-2z"/><path fill="#5b2934" d="M16 17h1v1h-1z"/><path fill="#fbbcac" d="M17 17h2v1h-2z"/><path fill="#5b2934" d="M19 17h1v1h-1zM0 18h1v1H0z"/><path fill="#f99d8b" d="M1 18h2v1H1z"/><path fill="#5b2934" d="M3 18h1v1H3zM16 18h1v1h-1z"/><path fill="#f99d8b" d="M17 18h2v1h-2z"/><path fill="#5b2934" d="M19 18h1v1h-1zM1 19h2v1H1zM17 19h2v1h-2z"/><path fill="#5b2934" d="M18 19h1v1h-1z"/></svg>
