<svg xmlns="http://www.w3.org/2000/svg" viewBox="0 0 20 20" shape-rendering="crispEdges"><path fill="#2e174f" d="M6 0h3v1H6zM5 1h1v1H5z"/><path fill="#571994" d="M6 1h1v1H6z"/><path fill="#83280c" d="M7 1h2v1H7z"/><path fill="#2e174f" d="M9 1h2v1H9z"/><path fill="#2e174f" d="M10 1h1v1h-1zM4 2h1v1H4z"/><path fill="#571994" d="M5 2h1v1H5z"/><path fill="#9455e7" d="M6 2h2v1H6z"/><path fill="#d88dab" d="M8 2h1v1H8z"/><path fill="#ef7925" d="M9 2h2v1H9z"/><path fill="#2e174f" d="M11 2h2v1h-2zM3 3h1v1H3z"/><path fill="#9455e7" d="M4 3h1v1H4z"/><path fill="#d88dab" d="M5 3h1v1H5z"/><path fill="#9455e7" d="M6 3h5v1H6z"/><path fill="#ffa200" d="M11 3h2v1h-2z"/><path fill="#2e174f" d="M13 3h2v1h-2zM2 4h1v1H2z"/><path fill="#9455e7" d="M3 4h5v1H3z"/><path fill="#de8caa" d="M8 4h1v1H8z"/><path fill="#9455e7" d="M9 4h4v1H9z"/><path fill="#e67700" d="M13 4h2v1h-2z"/><path fill="#2e174f" d="M15 4h1v1h-1z"/><path fill="#7e2701" d="M1 5h1v1H1z"/><path fill="#e67700" d="M2 5h2v1H2z"/><path fill="#ffa200" d="M4 5h1v1H4z"/><path fill="#d88dab" d="M5 5h1v1H5z"/><path fill="#9455e7" d="M6 5h8v1H6z"/><path fill="#de8caa" d="M14 5h1v1h-1z"/><path fill="#7e2701" d="M15 5h1v1h-1z"/><path fill="#2e174f" d="M16 5h1v1h-1z"/><path fill="#7e2701" d="M1 6h1v1H1z"/><path fill="#571994" d="M2 6h1v1H2z"/><path fill="#2e174f" d="M3 6h1v1H3z"/><path fill="#571994" d="M4 6h1v1H4z"/><path fill="#ffa200" d="M5 6h1v1H5z"/><path fill="#d88dab" d="M6 6h1v1H6z"/><path fill="#9455e7" d="M7 6h1v1H7z"/><path fill="#5b1a93" d="M8 6h1v1H8z"/><path fill="#9455e7" d="M9 6h2v1H9z"/><path fill="#de8caa" d="M11 6h1v1h-1z"/><path fill="#9455e7" d="M12 6h2v1h-2z"/><path fill="#de8caa" d="M14 6h1v1h-1z"/><path fill="#7e2701" d="M15 6h1v1h-1z"/><path fill="#2e174f" d="M16 6h1v1h-1zM1 7h4v1H1z"/><path fill="#571994" d="M5 7h1v1H5z"/><path fill="#ffa200" d="M6 7h1v1H6z"/><path fill="#9455e7" d="M7 7h1v1H7z"/><path fill="#2e174f" d="M8 7h1v1H8z"/><path fill="#9455e7" d="M9 7h6v1H9z"/><path fill="#571994" d="M15 7h1v1h-1z"/><path fill="#2e174f" d="M16 7h1v1h-1zM2 8h3v1H2z"/><path fill="#571994" d="M5 8h1v1H5z"/><path fill="#ef7925" d="M6 8h1v1H6z"/><path fill="#2e174f" d="M7 8h1v1H7z"/><path fill="#9456eb" d="M8 8h3v1H8z"/><path fill="#9455e7" d="M11 8h1v1h-1z"/><path fill="#de8caa" d="M12 8h1v1h-1z"/><path fill="#9455e7" d="M13 8h2v1h-2z"/><path fill="#2e174f" d="M15 8h1v1h-1zM3 9h1v1H3z"/><path fill="#571994" d="M4 9h2v1H4z"/><path fill="#83280c" d="M6 9h1v1H6z"/><path fill="#5b1a93" d="M7 9h1v1H7z"/><path fill="#9456eb" d="M8 9h3v1H8z"/><path fill="#9455e7" d="M11 9h3v1h-3z"/><path fill="#571994" d="M14 9h1v1h-1z"/><path fill="#2e174f" d="M15 9h1v1h-1zM4 10h1v1H4z"/><path fill="#83280c" d="M5 10h2v1H5z"/><path fill="#e67700" d="M7 10h1v1H7z"/><path fill="#ffa200" d="M8 10h2v1H8z"/><path fill="#e48ba9" d="M10 10h1v1h-1z"/><path fill="#9455e7" d="M11 10h3v1h-3z"/><path fill="#2e174f" d="M14 10h1v1h-1z"/><path fill="#83280c" d="M6 11h1v1H6z"/><path fill="#571994" d="M7 11h1v1H7z"/><path fill="#2e174f" d="M8 11h1v1H8z"/><path fill="#571994" d="M9 11h1v1H9z"/><path fill="#ffa200" d="M10 11h1v1h-1z"/><path fill="#e48ba9" d="M11 11h1v1h-1z"/><path fill="#9455e7" d="M12 11h1v1h-1z"/><path fill="#571994" d="M13 11h1v1h-1z"/><path fill="#2e174f" d="M14 11h1v1h-1zM6 12h1v1H6z"/><path fill="#571994" d="M7 12h1v1H7z"/><path fill="#2e174f" d="M8 12h2v1H8z"/><path fill="#2e174f" d="M9 12h1v1H9z"/><path fill="#571994" d="M10 12h1v1h-1z"/><path fill="#ffa200" d="M11 12h1v1h-1z"/><path fill="#e67700" d="M12 12h1v1h-1z"/><path fill="#2e174f" d="M13 12h1v1h-1zM7 13h1v1H7z"/><path fill="#571994" d="M8 13h1v1H8z"/><path fill="#2e174f" d="M9 13h2v1H9z"/><path fill="#571994" d="M11 13h1v1h-1z"/><path fill="#7e2701" d="M12 13h1v1h-1z"/><path fill="#2e174f" d="M8 14h4v1H8z"/></svg>
