<svg viewBox="0 0 48 48" xmlns="http://www.w3.org/2000/svg"><path fill="#252525" d="M21 9h18v3H21zM18 12h3v6h-3z"/><path fill="#767676" d="M21 12h3v3h-3z"/><path fill="#585858" d="M24 12h3v3h-3z"/><path fill="#252525" d="M27 12h6v3h-6z"/><path fill="#585858" d="M33 12h3v3h-3z"/><path fill="#767676" d="M36 12h3v3h-3z"/><path fill="#252525" d="M39 12h3v6h-3z"/><path fill="#585858" d="M21 15h3v3h-3z"/><path fill="#767676" d="M24 15h12v3H24z"/><path fill="#585858" d="M36 15h3v3h-3z"/><path fill="#252525" d="M21 18h6v3h-6z"/><path fill="#4c4c4c" d="M27 18h6v3h-6z"/><path fill="#252525" d="M33 18h6v3h-6zM9 21h3v3H9zM18 21h6v3h-6z"/><path fill="#585858" d="M24 21h9v3h-9z"/><path fill="#4c4c4c" d="M33 21h3v3h-3zM36 21h3v9h-3z"/><path fill="#252525" d="M39 21h3v9h-3zM6 24h3v9H6z"/><path fill="#767676" d="M9 24h3v6H9z"/><path fill="#252525" d="M12 24h6v3h-6z"/><path fill="#585858" d="M18 24h3v3h-3z"/><path fill="#767676" d="M21 24h9v3h-9z"/><path fill="#585858" d="M30 24h6v3h-6z"/><path fill="#767676" d="M12 27h12v3H12z"/><path fill="#585858" d="M24 27h9v3h-9z"/><path fill="#4c4c4c" d="M33 27h3v3h-3z"/><path fill="#585858" d="M9 30h3v3H9z"/><path fill="#767676" d="M12 30h6v3h-6z"/><path fill="#585858" d="M18 30h9v3h-9z"/><path fill="#4c4c4c" d="M27 30h9v3h-9z"/><path fill="#252525" d="M36 30h3v3h-3zM9 33h3v3H9z"/><path fill="#4c4c4c" d="M12 33h9v3h-9z"/><path fill="#252525" d="M21 33h15v3H21zM12 36h9v3h-9z"/></svg>
