<?xml version="1.0" standalone="yes"?>
<svg xmlns="http://www.w3.org/2000/svg" viewBox="0 0 48 48">
<path fill="#ffffff" d="M0 0L0 48L48 48L48 0L0 0z"/>
<path fill="#1a1a1a" d="M8 8L8 12L20 12L20 8L8 8M28 8L28 12L40 12L40 8L28 8z"/>
<path fill="#afafaf" d="M8 12L8 20L16 20L16 12L8 12z"/>
<path fill="#464646" d="M16 12L16 24L12 24L12 20L8 20L8 24L12 24L12 28L36 28L36 24L40 24L40 20L36 20L36 24L32 24L32 12L16 12z"/>
<path fill="#afafaf" d="M32 12L32 20L40 20L40 12L32 12M20 16L20 20L28 20L28 16L20 16z"/>
<path fill="#898989" d="M12 20L12 24L16 24L16 20L12 20M20 20L20 24L28 24L28 20L20 20M32 20L32 24L36 24L36 20L32 20z"/>
<path fill="#1a1a1a" d="M8 24L8 40L12 40L12 36L16 36L16 32L32 32L32 36L36 36L36 40L40 40L40 24L36 24L36 28L12 28L12 24L8 24z"/>
<path fill="#464646" d="M16 32L16 36L12 36L12 40L36 40L36 36L32 36L32 32L16 32z"/>
</svg>
