<svg xmlns="http://www.w3.org/2000/svg" viewBox="0 0 48 48"><path fill="#1a1a1a" d="M8 8v4h12V8H8m20 0v4h12V8H28z"/><path fill="#afafaf" d="M8 12v8h8v-8H8z"/><path fill="#464646" d="M16 12v12h-4v-4H8v4h4v4h24v-4h4v-4h-4v4h-4V12H16z"/><path fill="#afafaf" d="M32 12v8h8v-8h-8m-12 4v4h8v-4h-8z"/><path fill="#898989" d="M12 20v4h4v-4h-4m8 0v4h8v-4h-8m12 0v4h4v-4h-4z"/><path fill="#1a1a1a" d="M8 24v16h4v-4h4v-4h16v4h4v4h4V24h-4v4H12v-4H8z"/><path fill="#464646" d="M16 32v4h-4v4h24v-4h-4v-4H16z"/></svg>
